<?xml version="1.0" encoding="UTF-8" standalone="no"?>
<!-- Created with Inkscape (http://www.inkscape.org/) -->

<svg
   xmlns:dc="http://purl.org/dc/elements/1.1/"
   xmlns:cc="http://creativecommons.org/ns#"
   xmlns:rdf="http://www.w3.org/1999/02/22-rdf-syntax-ns#"
   xmlns:svg="http://www.w3.org/2000/svg"
   xmlns="http://www.w3.org/2000/svg"
   xmlns:sodipodi="http://sodipodi.sourceforge.net/DTD/sodipodi-0.dtd"
   xmlns:inkscape="http://www.inkscape.org/namespaces/inkscape"
   width="24"
   height="24"
   viewBox="0 0 6.35 6.35"
   version="1.1"
   id="svg22"
   inkscape:version="0.92.4 5da689c313, 2019-01-14"
   sodipodi:docname="menu_audacity_icon24.svg">
  <defs
     id="defs16">
    <clipPath
       id="clipPath3126">
      <path
         style="fill:none;stroke:#000000;stroke-width:1px;stroke-linecap:butt;stroke-linejoin:miter;stroke-opacity:1"
         id="path3128"
         d="m 30,94 2,2 3,10 1,-12 3,15 0,-19 2,5 3,14 0,-19 2,2 3,17 3,-23 6.615678,25.91971 L 59,96 l 2,-6 2,25 6,-25 2,21 5,-22 5,24 1,-18 3,-6 1,23 5,-22 3,10 1,-9 3,6 0,-19 -3,8 L 94,69 92,82 90,78 89,64 84,83 83,79 80,49 77,75 75,83 71,56 67,79 65,85 64,43.695313 58,90 52,48 49,84 47,80 45,56 44,80 41,87 39,63 37,82 34,77 34,91 30,76 30,94 z" />
    </clipPath>
    <filter
       id="filter3242"
       color-interpolation-filters="sRGB"
       height="1.1844211"
       width="1.2002286"
       y="-0.092210524"
       x="-0.10011429">
      <feGaussianBlur
         stdDeviation="2.92"
         id="feGaussianBlur3244" />
    </filter>
    <filter
       id="filter3282"
       color-interpolation-filters="sRGB">
      <feGaussianBlur
         stdDeviation="1.3375"
         id="feGaussianBlur3284" />
    </filter>
    <filter
       id="filter3326"
       color-interpolation-filters="sRGB">
      <feGaussianBlur
         stdDeviation="0.35326172"
         id="feGaussianBlur3328" />
    </filter>
    <filter
       id="filter2788"
       color-interpolation-filters="sRGB">
      <feGaussianBlur
         stdDeviation="3.588898"
         id="feGaussianBlur2790" />
    </filter>
    <clipPath
       id="clipPath2798">
      <path
         style="fill:#000000;fill-opacity:1;fill-rule:nonzero;stroke:none;stroke-width:18.98999977;marker:none;visibility:visible;display:inline;overflow:visible;enable-background:accumulate"
         id="path2800"
         d="M 64,6.875 C 50.736931,6.8749995 38.641338,11.015795 29.71875,17.96875 20.796162,24.921705 15.000001,34.870138 15,45.9375 l 0,4 C 6.141206,54.425978 -2.65625e-7,66.200002 0,80 c 3.5e-7,17.663999 10.049452,32 23,32 l 0,-66.0625 c 1e-6,-8.28809 4.289844,-15.915956 11.65625,-21.65625 C 42.022656,18.540956 52.424603,14.875 64,14.875 c 11.575394,0 21.977345,3.665955 29.34375,9.40625 C 100.71016,30.021545 105,37.649411 105,45.9375 L 105,112 c 12.95055,0 23,-14.336001 23,-32 0,-13.799998 -6.14121,-25.574022 -15,-30.0625 l 0,-4 C 113,34.870138 107.20384,24.921705 98.28125,17.96875 89.358662,11.015795 77.263067,6.8750003 64,6.875 z M 26,49 l 0,63 c 2,0 4,-1 5,-3 l 0,-58 c -1,-1 -3,-2 -5,-2 z m 76,0 c -2,0 -4,1 -5,2 l 0,58 c 1,2 3,3 5,3 l 0,-63 z" />
    </clipPath>
    <filter
       id="filter3200"
       color-interpolation-filters="sRGB">
      <feGaussianBlur
         stdDeviation="0.79830634"
         id="feGaussianBlur3202" />
    </filter>
  </defs>
  <sodipodi:namedview
     id="base"
     pagecolor="#282828"
     bordercolor="#666666"
     borderopacity="1.0"
     inkscape:pageopacity="0"
     inkscape:pageshadow="2"
     inkscape:zoom="7.9999996"
     inkscape:cx="-19.623222"
     inkscape:cy="-2.948143"
     inkscape:document-units="px"
     inkscape:current-layer="layer1"
     showgrid="false"
     units="pt"
     inkscape:window-width="1918"
     inkscape:window-height="1038"
     inkscape:window-x="0"
     inkscape:window-y="32"
     inkscape:window-maximized="0" />
  <metadata
     id="metadata19">
    <rdf:RDF>
      <cc:Work
         rdf:about="">
        <dc:format>image/svg+xml</dc:format>
        <dc:type
           rdf:resource="http://purl.org/dc/dcmitype/StillImage" />
        <dc:title></dc:title>
      </cc:Work>
    </rdf:RDF>
  </metadata>
  <g
     inkscape:label="Layer 1"
     inkscape:groupmode="layer"
     id="layer1"
     transform="translate(0,-290.65)">
    <text
       xml:space="preserve"
       style="font-style:normal;font-variant:normal;font-weight:normal;font-stretch:normal;font-size:10.58333302px;line-height:1.25;font-family:'Droid Sans';-inkscape-font-specification:'Droid Sans';letter-spacing:0px;word-spacing:0px;fill:#000000;fill-opacity:1;stroke:none;stroke-width:0.26458332"
       x="-22.319494"
       y="298.42688"
       id="text31"><tspan
         sodipodi:role="line"
         id="tspan29"
         x="-22.319494"
         y="307.80423"
         style="font-style:normal;font-variant:normal;font-weight:normal;font-stretch:normal;font-family:'Droid Sans';-inkscape-font-specification:'Droid Sans';stroke-width:0.26458332" /></text>
    <text
       xml:space="preserve"
       style="font-style:normal;font-weight:normal;font-size:10.58333302px;line-height:1.25;font-family:sans-serif;letter-spacing:0px;word-spacing:0px;fill:#000000;fill-opacity:1;stroke:none;stroke-width:0.26458332"
       x="-22.08326"
       y="297.48193"
       id="text35"><tspan
         sodipodi:role="line"
         id="tspan33"
         x="-22.08326"
         y="306.8457"
         style="stroke-width:0.26458332" /></text>
    <g
       id="g959"
       transform="translate(0,-0.31686637)">
      <path
         style="display:inline;overflow:visible;visibility:visible;fill:#ffffff;fill-opacity:1;fill-rule:nonzero;stroke:none;stroke-width:0.26458332;marker:none;enable-background:accumulate"
         d="m 3.175,291.47145 c -0.5763767,0 -1.102018,0.17995 -1.4897692,0.4821 -0.3877513,0.30216 -0.6396365,0.73449 -0.6396366,1.21545 v 0.17383 c -0.38497885,0.19505 -0.65185885,0.70672 -0.65185884,1.30643 2e-8,0.76763 0.43672165,1.39063 0.99951694,1.39063 V 293.169 c 0,-0.36018 0.1864249,-0.69167 0.5065487,-0.94112 0.3201238,-0.24946 0.7721639,-0.40877 1.275199,-0.40877 0.5030349,0 0.9550752,0.15931 1.2751989,0.40877 0.320124,0.24945 0.5065487,0.58094 0.5065487,0.94112 v 2.87089 c 0.5627954,0 0.999517,-0.623 0.999517,-1.39063 0,-0.59971 -0.2668802,-1.11138 -0.6518589,-1.30643 V 293.169 c 0,-0.48096 -0.2518852,-0.91329 -0.6396365,-1.21545 C 4.2770179,291.6514 3.7513765,291.47145 3.175,291.47145 Z"
         id="path126"
         inkscape:connector-curvature="0" />
      <path
         sodipodi:nodetypes="cccccc"
         inkscape:connector-curvature="0"
         id="path936"
         d="m 1.9265805,294.82193 h 0.5859928 l 0.508628,-1.28862 0.5464144,2.4469 0.3409684,-1.27251 h 0.5148354"
         style="fill:none;stroke:#ffffff;stroke-width:0.39687499;stroke-linecap:butt;stroke-linejoin:miter;stroke-miterlimit:4.5;stroke-dasharray:none;stroke-opacity:1" />
    </g>
  </g>
</svg>
