<?xml version="1.0" encoding="UTF-8" standalone="no"?>
<!-- Created with Inkscape (http://www.inkscape.org/) -->

<svg
   xmlns:dc="http://purl.org/dc/elements/1.1/"
   xmlns:cc="http://creativecommons.org/ns#"
   xmlns:rdf="http://www.w3.org/1999/02/22-rdf-syntax-ns#"
   xmlns:svg="http://www.w3.org/2000/svg"
   xmlns="http://www.w3.org/2000/svg"
   xmlns:sodipodi="http://sodipodi.sourceforge.net/DTD/sodipodi-0.dtd"
   xmlns:inkscape="http://www.inkscape.org/namespaces/inkscape"
   width="24"
   height="24"
   viewBox="0 0 6.35 6.35"
   version="1.1"
   id="svg22"
   inkscape:version="0.92.4 5da689c313, 2019-01-14"
   sodipodi:docname="menu_chrome_icon24.svg">
  <defs
     id="defs16" />
  <sodipodi:namedview
     id="base"
     pagecolor="#282828"
     bordercolor="#666666"
     borderopacity="1.0"
     inkscape:pageopacity="0"
     inkscape:pageshadow="2"
     inkscape:zoom="5.6568542"
     inkscape:cx="-41.140183"
     inkscape:cy="18.122351"
     inkscape:document-units="px"
     inkscape:current-layer="layer1"
     showgrid="false"
     units="pt"
     inkscape:window-width="1920"
     inkscape:window-height="1048"
     inkscape:window-x="0"
     inkscape:window-y="32"
     inkscape:window-maximized="0" />
  <metadata
     id="metadata19">
    <rdf:RDF>
      <cc:Work
         rdf:about="">
        <dc:format>image/svg+xml</dc:format>
        <dc:type
           rdf:resource="http://purl.org/dc/dcmitype/StillImage" />
        <dc:title />
      </cc:Work>
    </rdf:RDF>
  </metadata>
  <g
     inkscape:label="Layer 1"
     inkscape:groupmode="layer"
     id="layer1"
     transform="translate(0,-290.65)">
    <path
       style="opacity:1;fill:#ffffff;fill-opacity:1;stroke:none;stroke-width:0.29934463;stroke-linecap:butt;stroke-linejoin:miter;stroke-miterlimit:4;stroke-dasharray:none;stroke-dashoffset:0;stroke-opacity:0"
       d="M 3.175,291.31146 A 2.5135649,2.5135649 0 0 0 0.66145832,293.825 2.5135649,2.5135649 0 0 0 3.175,296.33854 2.5135649,2.5135649 0 0 0 5.6885417,293.825 2.5135649,2.5135649 0 0 0 3.175,291.31146 Z m 0,0.19182 c 0.4101616,0 0.8133296,0.10864 1.1658515,0.31379 0.3420325,0.19903 0.6295456,0.48401 0.8316501,0.8244 0.00698,0.0118 0.00721,0.0266 4.535e-4,0.0385 -0.00676,0.0122 -0.019416,0.019 -0.033103,0.019 H 3.2765756 c -0.00108,0 -0.00209,1e-4 -0.00317,0 -0.03322,-0.003 -0.0664,-0.005 -0.098401,-0.005 -0.515728,0 -0.9657832,0.34909 -1.0946581,0.84843 -0.00387,0.0149 -0.016426,0.0264 -0.031742,0.0281 -0.00172,2.3e-4 -0.00374,4.6e-4 -0.00544,4.6e-4 -0.013458,0 -0.025796,-0.007 -0.032649,-0.019 l -0.6538927,-1.13229 c -0.00784,-0.0136 -0.00616,-0.0304 0.00363,-0.0426 0.4436098,-0.55543 1.1049165,-0.87427 1.8147562,-0.87427 z m -1.9906996,1.16449 c 0.013595,0 0.026313,0.007 0.033103,0.019 l 0.9323185,1.61478 c 5.353e-4,8.8e-4 9.036e-4,0.002 0.00136,0.003 0.1859361,0.39577 0.5878746,0.65117 1.0239179,0.65117 0.102628,0 0.2046087,-0.0134 0.3029129,-0.0408 0.014965,-0.004 0.030904,9.6e-4 0.040358,0.0131 0.00947,0.0122 0.010451,0.0292 0.00272,0.0426 l -0.6538926,1.13229 c -0.00687,0.012 -0.019206,0.019 -0.032649,0.019 -0.00188,0 -0.00401,-1.6e-4 -0.0059,-4.5e-4 -0.5443499,-0.0815 -1.0437197,-0.35638 -1.40664,-0.77406 -0.3665589,-0.42189 -0.56864178,-0.96225 -0.56864178,-1.52182 0,-0.39888 0.10303664,-0.79238 0.29792478,-1.13819 0.0067,-0.0115 0.019431,-0.0194 0.033103,-0.0195 z m 2.8082921,0.28522 h 1.3086923 c 0.015651,0 0.030102,0.009 0.035824,0.024 0.1060537,0.27011 0.1596187,0.5554 0.1596187,0.84797 0,0.61553 -0.2386099,1.19544 -0.6715777,1.63292 -0.4326178,0.43711 -1.0092378,0.68179 -1.6238486,0.68881 h -4.535e-4 c -0.013505,0 -0.025813,-0.007 -0.032649,-0.019 -0.0069,-0.0118 -0.00729,-0.0262 -4.534e-4,-0.0381 l 0.9341325,-1.61795 c 5.261e-4,-8.8e-4 0.0012,-10e-4 0.00181,-0.002 0.1321024,-0.18991 0.2017909,-0.41298 0.2017909,-0.64437 0,-0.30564 -0.1206398,-0.59202 -0.3396434,-0.80671 -0.011039,-0.0108 -0.01446,-0.0274 -0.00862,-0.0417 0.00583,-0.0143 0.019902,-0.0236 0.03537,-0.0236 z M 3.175,292.95799 c 0.4784281,0 0.8674734,0.38903 0.8674734,0.86747 0,0.47844 -0.3890453,0.86793 -0.8674734,0.86793 -0.4784586,0 -0.8679269,-0.38948 -0.8679269,-0.86793 0,-0.47844 0.3894683,-0.86747 0.8679269,-0.86747 z"
       id="path894"
       inkscape:connector-curvature="0" />
    <text
       xml:space="preserve"
       style="font-style:normal;font-variant:normal;font-weight:normal;font-stretch:normal;font-size:10.58333302px;line-height:1.25;font-family:'Droid Sans';-inkscape-font-specification:'Droid Sans';letter-spacing:0px;word-spacing:0px;fill:#000000;fill-opacity:1;stroke:none;stroke-width:0.26458332"
       x="-22.319494"
       y="298.42688"
       id="text31"><tspan
         sodipodi:role="line"
         id="tspan29"
         x="-22.319494"
         y="307.80423"
         style="font-style:normal;font-variant:normal;font-weight:normal;font-stretch:normal;font-family:'Droid Sans';-inkscape-font-specification:'Droid Sans';stroke-width:0.26458332" /></text>
    <text
       xml:space="preserve"
       style="font-style:normal;font-weight:normal;font-size:10.58333302px;line-height:1.25;font-family:sans-serif;letter-spacing:0px;word-spacing:0px;fill:#000000;fill-opacity:1;stroke:none;stroke-width:0.26458332"
       x="-22.08326"
       y="297.48193"
       id="text35"><tspan
         sodipodi:role="line"
         id="tspan33"
         x="-22.08326"
         y="306.8457"
         style="stroke-width:0.26458332" /></text>
  </g>
</svg>
