<?xml version="1.0" encoding="UTF-8" standalone="no"?>
<!-- Created with Inkscape (http://www.inkscape.org/) -->

<svg
   xmlns:dc="http://purl.org/dc/elements/1.1/"
   xmlns:cc="http://creativecommons.org/ns#"
   xmlns:rdf="http://www.w3.org/1999/02/22-rdf-syntax-ns#"
   xmlns:svg="http://www.w3.org/2000/svg"
   xmlns="http://www.w3.org/2000/svg"
   xmlns:sodipodi="http://sodipodi.sourceforge.net/DTD/sodipodi-0.dtd"
   xmlns:inkscape="http://www.inkscape.org/namespaces/inkscape"
   sodipodi:docname="battery-low-charging.svg"
   height="24"
   id="svg6530"
   version="1.1"
   inkscape:version="0.92.2 2405546, 2018-03-11"
   viewBox="0 0 24 24"
   width="24"
   inkscape:export-filename="/home/stefan/projects/battery-widget/png/battery-low-charging.png"
   inkscape:export-xdpi="96"
   inkscape:export-ydpi="96">
  <defs
     id="defs6532" />
  <sodipodi:namedview
     inkscape:bbox-nodes="true"
     bordercolor="#666666"
     borderopacity="1.0"
     inkscape:current-layer="layer1"
     inkscape:cx="-384.45531"
     inkscape:cy="2.7303934"
     inkscape:document-units="px"
     id="base"
     inkscape:object-nodes="true"
     inkscape:object-paths="true"
     pagecolor="#454d50"
     inkscape:pageopacity="0"
     inkscape:pageshadow="2"
     showgrid="false"
     inkscape:snap-bbox="true"
     inkscape:snap-bbox-edge-midpoints="true"
     inkscape:snap-bbox-midpoints="true"
     inkscape:snap-smooth-nodes="true"
     units="px"
     inkscape:window-height="1054"
     inkscape:window-maximized="1"
     inkscape:window-width="1918"
     inkscape:window-x="0"
     inkscape:window-y="24"
     inkscape:zoom="1">
    <inkscape:grid
       empspacing="4"
       id="grid8845"
       originx="-79.999983"
       originy="-535.99996"
       type="xygrid" />
  </sodipodi:namedview>
  <metadata
     id="metadata6535">
    <rdf:RDF>
      <cc:Work
         rdf:about="">
        <dc:format>image/svg+xml</dc:format>
        <dc:type
           rdf:resource="http://purl.org/dc/dcmitype/StillImage" />
        <dc:title></dc:title>
      </cc:Work>
    </rdf:RDF>
  </metadata>
  <g
     inkscape:groupmode="layer"
     id="layer1"
     inkscape:label="panel"
     transform="translate(-79.999983,-492.3622)">
    <path
       style="opacity:0.35;fill:#dbdee0;fill-opacity:1;stroke:none"
       d="M 10 5 L 10 6 L 7 6 L 7 7 L 7 18 C 7 18.554 7.446 19 8 19 L 16 19 C 16.554 19 17 18.554 17 18 L 17 7 L 17 6 L 14 6 L 14 5 L 10 5 z M 12 8 L 12 11 L 15 11 L 12 16 L 12 13 L 9 13 L 12 8 z "
       id="path13"
       transform="translate(79.999983,492.3622)" />
    <path
       style="fill:#ffffff;fill-opacity:1;stroke:none"
       d="M 7 15.615234 L 7 18 C 7 18.554 7.446 19 8 19 L 16 19 C 16.554 19 17 18.554 17 18 L 17 15.615234 L 12.230469 15.615234 L 12 16 L 12 15.615234 L 7 15.615234 z "
       transform="translate(79.999983,492.3622)"
       id="path6776" />
  </g>
  <g
     inkscape:groupmode="layer"
     id="layer2"
     inkscape:label="animations"
     transform="translate(-79.999983,-40.00004)" />
</svg>
