<?xml version="1.0" encoding="UTF-8" standalone="no"?>
<!-- Created with Inkscape (http://www.inkscape.org/) -->

<svg
   xmlns:dc="http://purl.org/dc/elements/1.1/"
   xmlns:cc="http://creativecommons.org/ns#"
   xmlns:rdf="http://www.w3.org/1999/02/22-rdf-syntax-ns#"
   xmlns:svg="http://www.w3.org/2000/svg"
   xmlns="http://www.w3.org/2000/svg"
   xmlns:sodipodi="http://sodipodi.sourceforge.net/DTD/sodipodi-0.dtd"
   xmlns:inkscape="http://www.inkscape.org/namespaces/inkscape"
   width="24"
   height="24"
   viewBox="0 0 6.35 6.35"
   version="1.1"
   id="svg22"
   inkscape:version="0.92.4 5da689c313, 2019-01-14"
   sodipodi:docname="menu_inkscape_icon24.svg">
  <defs
     id="defs16" />
  <sodipodi:namedview
     id="base"
     pagecolor="#282828"
     bordercolor="#666666"
     borderopacity="1.0"
     inkscape:pageopacity="0"
     inkscape:pageshadow="2"
     inkscape:zoom="0.99999999"
     inkscape:cx="-472.11537"
     inkscape:cy="149.27896"
     inkscape:document-units="px"
     inkscape:current-layer="layer1"
     showgrid="false"
     units="pt"
     inkscape:window-width="1920"
     inkscape:window-height="1048"
     inkscape:window-x="0"
     inkscape:window-y="32"
     inkscape:window-maximized="0" />
  <metadata
     id="metadata19">
    <rdf:RDF>
      <cc:Work
         rdf:about="">
        <dc:format>image/svg+xml</dc:format>
        <dc:type
           rdf:resource="http://purl.org/dc/dcmitype/StillImage" />
        <dc:title></dc:title>
      </cc:Work>
    </rdf:RDF>
  </metadata>
  <g
     inkscape:label="Layer 1"
     inkscape:groupmode="layer"
     id="layer1"
     transform="translate(0,-290.65)">
    <text
       xml:space="preserve"
       style="font-style:normal;font-variant:normal;font-weight:normal;font-stretch:normal;font-size:10.58333302px;line-height:1.25;font-family:'Droid Sans';-inkscape-font-specification:'Droid Sans';letter-spacing:0px;word-spacing:0px;fill:#000000;fill-opacity:1;stroke:none;stroke-width:0.26458332"
       x="-22.319494"
       y="298.42688"
       id="text31"><tspan
         sodipodi:role="line"
         id="tspan29"
         x="-22.319494"
         y="307.80423"
         style="font-style:normal;font-variant:normal;font-weight:normal;font-stretch:normal;font-family:'Droid Sans';-inkscape-font-specification:'Droid Sans';stroke-width:0.26458332" /></text>
    <text
       xml:space="preserve"
       style="font-style:normal;font-weight:normal;font-size:10.58333302px;line-height:1.25;font-family:sans-serif;letter-spacing:0px;word-spacing:0px;fill:#000000;fill-opacity:1;stroke:none;stroke-width:0.26458332"
       x="-22.08326"
       y="297.48193"
       id="text35"><tspan
         sodipodi:role="line"
         id="tspan33"
         x="-22.08326"
         y="306.8457"
         style="stroke-width:0.26458332" /></text>
    <path
       style="stroke:#ffffff;stroke-width:0.26458332;fill:none"
       d="m 2.7113121,291.51484 -1.855759,1.899 c -0.62701283,0.77648 0.4267113,0.68614 0.8784258,0.90979 0.162037,0.16562 -0.6210729,0.28788 -0.4590358,0.45365 0.162037,0.16562 0.9798198,0.31909 1.142133,0.48472 0.1620371,0.16563 -0.3316717,0.34134 -0.1696346,0.50697 0.162037,0.16563 0.536808,0.009 0.6069826,0.39107 0.050007,0.27324 0.6753615,0.11742 0.9812012,-0.10636 0.1620371,-0.16577 -0.3099839,-0.15016 -0.1479469,-0.31579 0.4029514,-0.41207 0.778137,-0.14974 0.9159996,-0.56264 0.068103,-0.20403 -0.5931687,-0.31454 -0.4308554,-0.48017 0.466219,-0.27227 2.0776102,-0.4495 1.313011,-1.21411 l -1.9235853,-1.96613 c -0.2352507,-0.22585 -0.6278417,-0.22834 -0.8509362,0 z"
       id="path92" />
    <path
       style="fill:#ffffff;stroke:none;stroke-width:0.4731546"
       d="m 5.0207055,295.35124 c 0,0.16846 1.2413462,0.2789 1.2413462,-0.0397 -0.1768773,-0.51187 -1.0946079,-0.47728 -1.2413462,0.0397 z"
       id="path90"
       inkscape:connector-curvature="0" />
    <path
       style="fill:#ffffff;stroke:none;stroke-width:0.4731546"
       d="m 0.9255518,295.96587 c 0.2939706,0.25419 0.7480193,-0.0633 0.8841349,-0.418 -0.2848302,-0.37846 -1.35102934,0.0143 -0.8841349,0.418 z"
       id="path88"
       inkscape:connector-curvature="0" />
    <path
       style="fill:#ffffff;stroke:none;stroke-width:0.4731546"
       d="m 4.8650741,295.69733 c -0.3789503,0.33992 0.04249,0.68477 0.4160053,0.46517 0.083251,-0.0844 -0.00224,-0.38069 -0.4160053,-0.46517 z"
       id="path56"
       inkscape:connector-curvature="0" />
    <path
       style="fill:#ffffff;stroke:none;stroke-width:0.43521076"
       inkscape:connector-curvature="0"
       d="m 1.9531389,294.31628 c 0.081573,0.0507 1.3153974,0.30129 1.6169231,0.3513 0.1045229,0.022 0.030448,0.12978 -0.1136127,0.20245 -0.3249298,0.0864 -1.9009527,-0.55375 -1.5033104,-0.55375 z"
       id="path58" />
    <path
       style="fill:#ffffff;stroke:none;stroke-width:0.26458332"
       inkscape:connector-curvature="0"
       d="m 3.4500794,292.0104 0.7342087,0.74568 c 0.069622,0.0711 0.068655,0.209 0.0297,0.24864 l -0.3645487,-0.29161 -0.071694,0.43183 -0.3045964,-0.1608 -0.4877687,0.30819 -0.1614845,-0.64967 -0.2620497,0.45337 H 2.1612428 c -0.1632803,0 -0.1824817,-0.2072 -0.03412,-0.35556 0.2591487,-0.27973 0.5565619,-0.56486 0.7181846,-0.73007 0.1624514,-0.16604 0.4454981,-0.16135 0.604772,0 z"
       id="path60" />
  </g>
</svg>
